#!OML:ASF E:\VariousWalksJay\Project 1\Capture day 1\Session 1\Actor2.ASF
:FULLY-SPECIFIED
:DEGREES
1557
root -2.25801 16.5538 10.4778 187.645 43.4824 -178.317
lowerback -7.19619 -5.05021 3.17472
upperback -6.20733 -6.53381 -1.05641
thorax -2.91454 -3.26428 -3.13165
lowerneck -1.11477 -3.441 -2.90948
upperneck 18.4937 -5.01622 7.43764
head 6.01832 -1.81564 2.59696
rclavicle -4.58696e-014 -2.38542e-015
rhumerus -73.1831 35.6482 -93.6241
rradius 77.3127
rwrist -0.713504
rhand 12.2915 -9.45896
rfingers 7.12502
rthumb 37.2964 -35.4462
lclavicle -4.58696e-014 -2.38542e-015
lhumerus -2.62745 -36.9406 61.3545
lradius 61.0121
lwrist 12.2332
lhand 5.65901 8.32149
lfingers 7.12502
lthumb 30.9983 35.7233
rfemur -48.4271 9.27213 14.3997
rtibia 40.986
rfoot -22.7203 -12.8412
rtoes -16.6266
lfemur 20.1411 6.9598 -15.8114
ltibia 3.18055e-014
lfoot -24.3328 6.98979
ltoes -7.30371
1558
root -2.14905 16.515 10.4107 187.943 43.5117 -178.149
lowerback -7.22707 -5.03129 3.28068
upperback -6.18916 -6.51579 -1.04932
thorax -2.88905 -3.25891 -3.18557
lowerneck -1.16992 -3.4782 -2.74913
upperneck 18.3257 -5.08207 7.45781
head 5.97528 -1.84256 2.57004
rclavicle 8.89561e-015 6.36111e-015
rhumerus -73.3099 35.57 -93.4786
rradius 77.4259
rwrist -0.629289
rhand 12.7525 -9.40972
rfingers 7.12502
rthumb 37.7321 -35.2813
lclavicle 8.89561e-015 6.36111e-015
lhumerus -2.37352 -37.0563 61.1446
lradius 61.1289
lwrist 12.2855
lhand 5.74414 8.44868
lfingers 7.12502
lthumb 31.0795 35.835
rfemur -48.5102 9.51489 14.337
rtibia 40.765
rfoot -22.4239 -12.7249
rtoes -16.4106
lfemur 20.4469 6.81818 -15.5828
ltibia 1.27222e-014
lfoot -24.4753 7.24668
ltoes -8.09707
1559
root -2.04099 16.4744 10.3488 188.227 43.5919 -178.01
lowerback -7.1326 -5.08667 3.24764
upperback -6.27023 -6.57975 -0.889774
thorax -3.00765 -3.28741 -2.99212
lowerneck -1.01802 -3.45504 -2.91699
upperneck 18.1556 -5.04387 7.5013
head 5.89811 -1.8432 2.61514
rclavicle -6.3462e-014 -2.38542e-015
rhumerus -73.611 35.9017 -93.3505
rradius 77.6195
rwrist -0.603216
rhand 13.628 -9.60556
rfingers 7.12502
rthumb 38.5587 -35.2506
lclavicle -6.3462e-014 -2.38542e-015
lhumerus -2.49628 -36.8885 61.2718
lradius 61.2459
lwrist 12.2371
lhand 5.90353 8.53749
lfingers 7.12502
lthumb 31.2314 35.8946
rfemur -48.6389 9.82971 14.2658
rtibia 40.7015
rfoot -21.8176 -12.706
rtoes -16.679
lfemur 20.7281 6.72376 -15.3745
ltibia -4.45278e-014
lfoot -24.5567 7.48513
ltoes -8.79172
1560
root -1.92261 16.4283 10.2633 188.046 43.4886 -178.399
lowerback -7.31173 -5.06303 3.10959
upperback -6.15767 -6.55302 -1.07754
thorax -2.79481 -3.27016 -3.13203
lowerneck -1.08039 -3.58511 -2.77444
upperneck 18.0392 -5.23809 7.54631
head 5.88108 -1.92877 2.59214
rclavicle -3.80176e-014 7.15625e-015
rhumerus -73.5463 35.6407 -93.0862
rradius 77.6729
rwrist -0.519948
rhand 14.1198 -9.77423
rfingers 7.12502
rthumb 39.0225 -35.2878
lclavicle -3.80176e-014 7.15625e-015
lhumerus -2.16869 -37.0914 61.0808
lradius 61.4011
lwrist 12.2361
lhand 6.04779 8.66204
lfingers 7.12502
lthumb 31.3689 35.9925
rfemur -48.5396 9.55197 14.0141
rtibia 40.9043
rfoot -21.1222 -12.4333
rtoes -17.8043
lfemur 21.1934 6.4054 -15.6066
ltibia -4.13472e-014
lfoot -24.6992 7.89814
ltoes -9.75858
1561
root -1.80345 16.381 10.1796 187.873 43.424 -178.808
lowerback -7.40668 -5.14477 2.8568
upperback -6.13047 -6.65148 -1.12295
thorax -2.69632 -3.30926 -3.05446
lowerneck -1.02815 -3.59703 -2.80603
upperneck 17.9614 -5.247 7.51089
head 5.84806 -1.94301 2.58573
rclavicle 4.24405e-014 7.55382e-015
rhumerus -73.5752 35.8568 -92.9025
rradius 77.7643
rwrist -0.550086
rhand 14.314 -9.39555
rfingers 7.12502
rthumb 39.2056 -34.8564
lclavicle 4.24405e-014 7.55382e-015
lhumerus -2.20133 -37.004 61.1012
lradius 61.5552
lwrist 12.3024
lhand 6.24691 8.70426
lfingers 7.12502
lthumb 31.5586 35.9977
rfemur -48.4754 8.92432 14.0629
rtibia 41.2935
rfoot -19.7091 -12.1712
rtoes -19.2888
lfemur 21.6419 6.12334 -15.8541
ltibia 9.22361e-014
lfoot -24.864 8.15831
ltoes -10.5398
1562
root -1.68568 16.3404 10.1005 188.078 43.4099 -178.838
lowerback -7.52135 -5.17797 2.88724
upperback -6.15896 -6.695 -1.07307
thorax -2.66409 -3.32933 -3.03086
lowerneck -0.874712 -3.58578 -2.93263
upperneck 17.8438 -5.22891 7.57509
head 5.78815 -1.9456 2.63007
rclavicle -1.49933e-013 -3.49861e-014
rhumerus -73.621 36.0103 -92.6627
rradius 77.8918
rwrist -0.574574
rhand 14.7345 -9.6518
rfingers 7.12502
rthumb 39.6017 -34.9968
lclavicle -1.49933e-013 -3.49861e-014
lhumerus -2.27268 -36.9124 61.1901
lradius 61.7053
lwrist 12.3629
lhand 6.342 8.80901
lfingers 7.12502
lthumb 31.6491 36.0847
rfemur -48.5935 8.2308 14.5353
rtibia 41.9617
rfoot -18.1464 -11.604
rtoes -18.4496
lfemur 21.9488 5.92799 -15.8062
ltibia 3.18055e-015
lfoot -24.9297 8.36258
ltoes -11.2297
